<svg xmlns="http://www.w3.org/2000/svg" xmlns:xlink="http://www.w3.org/1999/xlink" viewBox="0 0 1729.76 436.96"><defs><style>.cls-1{fill:#fff;}</style><symbol id="SN_-_neutrales" data-name="SN - neutrales" viewBox="0 0 110.39 27.89"><path class="cls-1" d="M6.41,11.79a9,9,0,0,1-2.8-1.16A5.08,5.08,0,0,1,1.24,6.46,5,5,0,0,1,2.59,2.69,6.43,6.43,0,0,1,6.89.87a9.19,9.19,0,0,1,5.54,1.85l.6.39L11.11,6.25l-.66-.42A5.71,5.71,0,0,0,6.89,4.56a2.85,2.85,0,0,0-1.64.69,1.33,1.33,0,0,0-.32,1.06c0,.94.69,1.47,2.38,1.89l.53.16a9.86,9.86,0,0,1,4.09,2.46,5.32,5.32,0,0,1,1.45,3.61A5.76,5.76,0,0,1,7.65,20a11.12,11.12,0,0,1-3.24-.45A10.2,10.2,0,0,1,0,16.75l2.69-2.53a6.39,6.39,0,0,0,5,2.08,2,2,0,0,0,2-1.87c0-1-1.13-1.92-3.06-2.58l-.08,0Z"/><polygon class="cls-1" points="23.14 19.63 19.34 15.01 18.57 15.8 18.57 19.63 14.88 19.63 14.88 0 18.57 0 18.57 11.93 21.95 8.26 26.46 8.26 21.84 13.01 27.46 19.63 23.14 19.63"/><polygon class="cls-1" points="31.99 18.92 26.45 8.26 30.25 8.26 34 14.56 37.48 8.26 41.17 8.26 30.96 27.89 27.27 27.89 31.99 18.92"/><polygon class="cls-1" points="56.05 19.63 45.65 8.84 45.65 19.63 41.96 19.63 41.96 1.13 43.12 1.13 53.33 11.48 53.33 1.13 57.02 1.13 57.02 19.63 56.05 19.63"/><path class="cls-1" d="M65,7.91a6.14,6.14,0,0,0-6.28,6,6.3,6.3,0,0,0,12.59,0A6.15,6.15,0,0,0,65,7.91Zm2.14,8.23A2.91,2.91,0,0,1,65,17a2.8,2.8,0,0,1-2.06-.9,3,3,0,0,1-.9-2.21,3,3,0,0,1,.9-2.19A2.72,2.72,0,0,1,65,10.81a2.83,2.83,0,0,1,2.11.93A3.1,3.1,0,0,1,68,13.9,3.31,3.31,0,0,1,67.13,16.14Z"/><polygon class="cls-1" points="80.2 8.25 77.32 14.08 74.42 8.25 70.81 8.25 76.48 19.62 78.07 19.62 83.74 8.25 80.2 8.25"/><rect class="cls-1" x="96.63" width="3.38" height="19.4"/><path class="cls-1" d="M107.28,12.65c-1.32-.45-2.56-.61-2.43-1.45.16-1.22,1.66-1.35,3.88.23L110.26,9a7.64,7.64,0,0,0-4.54-1.34c-2.16,0-4,1.37-4,3.45s1.53,2.88,3.74,3.57c.85.26,1.66.52,1.66,1.37,0,1.42-2.53,1.34-4.19-.56l-2.11,2.14a7.53,7.53,0,0,0,5.41,2.06c2.32,0,4.19-1.74,4.19-3.56S108.89,13.12,107.28,12.65Z"/><path class="cls-1" d="M95.26,13a6,6,0,1,0-.49,3.45H91.06A2.7,2.7,0,0,1,89.4,17a2.66,2.66,0,0,1-1.66-.58,3,3,0,0,1-1-1.45h8.52a3.43,3.43,0,0,0,.07-.56,4.41,4.41,0,0,0,0-.52A5.62,5.62,0,0,0,95.26,13Zm-8.6,0a2.8,2.8,0,0,1,5.47,0Z"/></symbol></defs><title>logo_blanco</title><g id="Capa_2" data-name="Capa 2"><g id="Capa_1-2" data-name="Capa 1"><use width="110.39" height="27.89" transform="scale(15.67)" xlink:href="#SN_-_neutrales"/></g></g></svg>