<svg xmlns="http://www.w3.org/2000/svg" xmlns:xlink="http://www.w3.org/1999/xlink" viewBox="0 0 1729.76 552.62"><defs><style>.cls-1{fill:#141d2b;}.cls-2{fill:#d93636;}</style><symbol id="SN_apellido_-_positivo" data-name="SN + apellido - positivo" viewBox="0 0 110.39 35.27"><path class="cls-1" d="M6.41,11.79a9,9,0,0,1-2.8-1.16A5.08,5.08,0,0,1,1.24,6.46,5,5,0,0,1,2.59,2.69,6.43,6.43,0,0,1,6.89.87a9.19,9.19,0,0,1,5.54,1.85l.6.39L11.11,6.25l-.66-.42A5.71,5.71,0,0,0,6.89,4.56a2.85,2.85,0,0,0-1.64.69,1.33,1.33,0,0,0-.32,1.06c0,.94.69,1.47,2.38,1.89l.53.16a9.86,9.86,0,0,1,4.09,2.46,5.32,5.32,0,0,1,1.45,3.61A5.76,5.76,0,0,1,7.65,20a11.12,11.12,0,0,1-3.24-.45A10.2,10.2,0,0,1,0,16.75l2.69-2.53a6.39,6.39,0,0,0,5,2.08,2,2,0,0,0,2-1.87c0-1-1.13-1.92-3.06-2.58l-.08,0Z"/><polygon class="cls-1" points="23.14 19.63 19.34 15.01 18.57 15.8 18.57 19.63 14.88 19.63 14.88 0 18.57 0 18.57 11.93 21.95 8.26 26.46 8.26 21.84 13.01 27.46 19.63 23.14 19.63"/><polygon class="cls-1" points="31.99 18.92 26.45 8.26 30.25 8.26 34 14.56 37.48 8.26 41.17 8.26 30.96 27.89 27.27 27.89 31.99 18.92"/><polygon class="cls-2" points="56.05 19.63 45.65 8.84 45.65 19.63 41.96 19.63 41.96 1.13 43.12 1.13 53.33 11.48 53.33 1.13 57.02 1.13 57.02 19.63 56.05 19.63"/><path class="cls-2" d="M65,7.91a6.14,6.14,0,0,0-6.28,6,6.3,6.3,0,0,0,12.59,0A6.15,6.15,0,0,0,65,7.91Zm2.14,8.23A2.91,2.91,0,0,1,65,17a2.8,2.8,0,0,1-2.06-.9,3,3,0,0,1-.9-2.21,3,3,0,0,1,.9-2.19A2.72,2.72,0,0,1,65,10.81a2.83,2.83,0,0,1,2.11.93A3.1,3.1,0,0,1,68,13.9,3.31,3.31,0,0,1,67.13,16.14Z"/><polygon class="cls-2" points="80.2 8.25 77.32 14.08 74.42 8.25 70.81 8.25 76.48 19.62 78.07 19.62 83.74 8.25 80.2 8.25"/><rect class="cls-2" x="96.63" width="3.38" height="19.4"/><path class="cls-2" d="M107.28,12.65c-1.32-.45-2.56-.61-2.43-1.45.16-1.22,1.66-1.35,3.88.23L110.26,9a7.64,7.64,0,0,0-4.54-1.34c-2.16,0-4,1.37-4,3.45s1.53,2.88,3.74,3.57c.85.26,1.66.52,1.66,1.37,0,1.42-2.53,1.34-4.19-.56l-2.11,2.14a7.53,7.53,0,0,0,5.41,2.06c2.32,0,4.19-1.74,4.19-3.56S108.89,13.12,107.28,12.65Z"/><path class="cls-2" d="M95.26,13a6,6,0,1,0-.49,3.45H91.06A2.7,2.7,0,0,1,89.4,17a2.66,2.66,0,0,1-1.66-.58,3,3,0,0,1-1-1.45h8.52a3.43,3.43,0,0,0,.07-.56,4.41,4.41,0,0,0,0-.52A5.62,5.62,0,0,0,95.26,13Zm-8.6,0a2.8,2.8,0,0,1,5.47,0Z"/><path class="cls-1" d="M10.5,35.23l-.34-.78H8.51l-.33.78H7.4L9,31.71h.62l1.62,3.52ZM8.77,33.86H9.91l-.57-1.32Z"/><path class="cls-1" d="M12.18,35l.2-.52a1.4,1.4,0,0,0,.44.22,1.62,1.62,0,0,0,.49.08.61.61,0,0,0,.3-.06.19.19,0,0,0,.1-.17.16.16,0,0,0-.07-.15.74.74,0,0,0-.26-.1L13,34.17a1,1,0,0,1-.53-.25.62.62,0,0,1-.18-.46A.68.68,0,0,1,12.4,33a.92.92,0,0,1,.38-.28,1.4,1.4,0,0,1,.56-.1,1.53,1.53,0,0,1,.52.08,1.42,1.42,0,0,1,.46.23l-.2.5a1.71,1.71,0,0,0-.4-.21,1.32,1.32,0,0,0-.39-.06.55.55,0,0,0-.28.06.2.2,0,0,0-.11.18.16.16,0,0,0,.06.13.5.5,0,0,0,.22.09l.42.09a1.09,1.09,0,0,1,.56.27.65.65,0,0,1,.18.48.67.67,0,0,1-.29.56,1.3,1.3,0,0,1-.79.21A1.8,1.8,0,0,1,12.18,35Z"/><path class="cls-1" d="M15.82,34.92a1.23,1.23,0,0,1-.35-.94,1.41,1.41,0,0,1,.16-.69,1.21,1.21,0,0,1,.48-.47,1.45,1.45,0,0,1,.7-.16,1.59,1.59,0,0,1,.53.08,1.07,1.07,0,0,1,.41.23l-.2.52a1.13,1.13,0,0,0-.32-.19,1.15,1.15,0,0,0-.35-.07.66.66,0,0,0-.48.19.78.78,0,0,0-.17.54.8.8,0,0,0,.17.55.62.62,0,0,0,.48.18,1,1,0,0,0,.67-.25l.2.52a1.2,1.2,0,0,1-.42.23,2,2,0,0,1-.55.08A1.3,1.3,0,0,1,15.82,34.92Z"/><path class="cls-1" d="M18.88,31.54h.8v.71h-.8Zm0,3.69V32.72h.75v2.51Z"/><path class="cls-1" d="M23.23,34H21.57a.8.8,0,0,0,.19.51.68.68,0,0,0,.48.16,1.32,1.32,0,0,0,.39-.06,1.48,1.48,0,0,0,.35-.19l.2.5a1.41,1.41,0,0,1-.44.23,2,2,0,0,1-.53.08,1.38,1.38,0,0,1-1-.35,1.26,1.26,0,0,1-.36-1,1.37,1.37,0,0,1,.16-.68,1.15,1.15,0,0,1,.43-.47,1.24,1.24,0,0,1,.64-.16,1.06,1.06,0,0,1,.84.34,1.37,1.37,0,0,1,.31.93Zm-1.47-.74a.61.61,0,0,0-.17.36h1q-.06-.48-.48-.48A.49.49,0,0,0,21.76,33.3Z"/><path class="cls-1" d="M26.88,33.71v1.52h-.75V33.74a.58.58,0,0,0-.1-.38.35.35,0,0,0-.3-.12.51.51,0,0,0-.4.16.56.56,0,0,0-.14.42v1.41h-.75V33.44c0-.27,0-.51,0-.72h.7l0,.4a1,1,0,0,1,.35-.35,1.07,1.07,0,0,1,.49-.11C26.58,32.66,26.88,33,26.88,33.71Z"/><path class="cls-1" d="M30.73,31.59v3.64H30v-.37a.77.77,0,0,1-.32.3,1.07,1.07,0,0,1-1.05-.06,1.11,1.11,0,0,1-.39-.46,1.75,1.75,0,0,1,0-1.37,1,1,0,0,1,.39-.45,1,1,0,0,1,.58-.16,1,1,0,0,1,.46.1.77.77,0,0,1,.32.3V31.59Zm-.89,2.92A.88.88,0,0,0,30,34a.87.87,0,0,0-.15-.54.5.5,0,0,0-.42-.19.5.5,0,0,0-.43.19.76.76,0,0,0-.16.53.82.82,0,0,0,.16.55.51.51,0,0,0,.43.2A.5.5,0,0,0,29.84,34.51Z"/><path class="cls-1" d="M34.27,34H32.62a.74.74,0,0,0,.18.51.69.69,0,0,0,.48.16,1.32,1.32,0,0,0,.39-.06,1.55,1.55,0,0,0,.36-.19l.19.5a1.22,1.22,0,0,1-.44.23,1.89,1.89,0,0,1-.53.08,1.37,1.37,0,0,1-1-.35,1.26,1.26,0,0,1-.37-1,1.48,1.48,0,0,1,.16-.68,1.11,1.11,0,0,1,.44-.47,1.24,1.24,0,0,1,.64-.16A1,1,0,0,1,34,33a1.32,1.32,0,0,1,.31.93ZM32.8,33.3a.67.67,0,0,0-.17.36h1q-.06-.48-.48-.48A.5.5,0,0,0,32.8,33.3Z"/><path class="cls-1" d="M41,32.72v2.51h-.74v-.37a.72.72,0,0,1-.32.3,1,1,0,0,1-.47.11,1.12,1.12,0,0,1-.58-.16,1.23,1.23,0,0,1-.39-.45,1.75,1.75,0,0,1,0-1.37,1.16,1.16,0,0,1,.4-.47,1,1,0,0,1,.57-.16.91.91,0,0,1,.47.11.8.8,0,0,1,.32.31v-.36Zm-.89,1.79a.85.85,0,0,0,.15-.54.88.88,0,0,0-.15-.55.5.5,0,0,0-.42-.19.51.51,0,0,0-.43.2.88.88,0,0,0-.16.55.76.76,0,0,0,.16.53.5.5,0,0,0,.43.19A.5.5,0,0,0,40.06,34.51Z"/><path class="cls-1" d="M45.22,31.54H46v.71h-.8Zm0,3.69V32.72H46v2.51Z"/><path class="cls-1" d="M49.8,33.71v1.52h-.75V33.74a.64.64,0,0,0-.09-.38.39.39,0,0,0-.31-.12.5.5,0,0,0-.39.16.57.57,0,0,0-.15.42v1.41h-.75V33.44a5.2,5.2,0,0,0,0-.72H48l0,.4a1,1,0,0,1,.35-.35,1.14,1.14,0,0,1,.49-.11C49.5,32.66,49.8,33,49.8,33.71Z"/><path class="cls-1" d="M51.34,34.92A1.27,1.27,0,0,1,51,34a1.41,1.41,0,0,1,.17-.69,1.18,1.18,0,0,1,.47-.47,1.49,1.49,0,0,1,.71-.16,1.59,1.59,0,0,1,.53.08,1.07,1.07,0,0,1,.41.23l-.2.52a1.5,1.5,0,0,0-.32-.19,1.15,1.15,0,0,0-.35-.07.64.64,0,0,0-.48.19.78.78,0,0,0-.17.54.8.8,0,0,0,.17.55.62.62,0,0,0,.48.18,1.12,1.12,0,0,0,.35-.06,1.5,1.5,0,0,0,.32-.19l.2.52a1.17,1.17,0,0,1-.43.23,1.91,1.91,0,0,1-.54.08A1.34,1.34,0,0,1,51.34,34.92Z"/><path class="cls-1" d="M56.16,32.71v.68a1,1,0,0,0-.37-.08.58.58,0,0,0-.45.16.65.65,0,0,0-.16.45v1.31h-.74V33.44c0-.27,0-.51,0-.72h.7l0,.43a.7.7,0,0,1,.29-.36.82.82,0,0,1,.46-.13A.67.67,0,0,1,56.16,32.71Z"/><path class="cls-1" d="M59.51,34H57.86a.74.74,0,0,0,.18.51.69.69,0,0,0,.48.16,1.32,1.32,0,0,0,.39-.06,1.55,1.55,0,0,0,.36-.19l.19.5a1.22,1.22,0,0,1-.44.23,1.89,1.89,0,0,1-.53.08,1.37,1.37,0,0,1-1-.35,1.23,1.23,0,0,1-.37-1,1.48,1.48,0,0,1,.16-.68,1.11,1.11,0,0,1,.44-.47,1.24,1.24,0,0,1,.64-.16,1,1,0,0,1,.83.34,1.32,1.32,0,0,1,.31.93ZM58,33.3a.67.67,0,0,0-.17.36h1q-.06-.48-.48-.48A.5.5,0,0,0,58,33.3Z"/><path class="cls-1" d="M60.73,35.23V32.72h.75v2.51Zm0-3.69.79-.21V32l-.79.22Z"/><path class="cls-1" d="M65,32.82a1,1,0,0,1,.39.45,1.75,1.75,0,0,1,0,1.37,1.11,1.11,0,0,1-.39.46,1.07,1.07,0,0,1-1.05.06.8.8,0,0,1-.32-.31v.38H62.9V31.59h.75v1.48a.72.72,0,0,1,.32-.3.9.9,0,0,1,.46-.11A1,1,0,0,1,65,32.82Zm-.36,1.69a1,1,0,0,0,.14-.56.88.88,0,0,0-.14-.53.5.5,0,0,0-.43-.19.51.51,0,0,0-.43.19.87.87,0,0,0-.15.54.88.88,0,0,0,.15.55.51.51,0,0,0,.43.19A.5.5,0,0,0,64.65,34.51Z"/><path class="cls-1" d="M66.76,35.23V31.59h.75v3.64Z"/><path class="cls-1" d="M71.1,34H69.45a.74.74,0,0,0,.18.51.7.7,0,0,0,.49.16,1.21,1.21,0,0,0,.38-.06,1.55,1.55,0,0,0,.36-.19l.2.5a1.41,1.41,0,0,1-.44.23,2,2,0,0,1-.54.08,1.37,1.37,0,0,1-1-.35,1.26,1.26,0,0,1-.36-1,1.48,1.48,0,0,1,.15-.68,1.17,1.17,0,0,1,.44-.47,1.24,1.24,0,0,1,.64-.16,1.08,1.08,0,0,1,.84.34,1.37,1.37,0,0,1,.3.93Zm-1.46-.74a.61.61,0,0,0-.17.36h1q-.06-.48-.48-.48A.47.47,0,0,0,69.64,33.3Z"/><path class="cls-1" d="M72.18,35l.19-.52a1.4,1.4,0,0,0,.44.22,1.69,1.69,0,0,0,.5.08.55.55,0,0,0,.29-.06.2.2,0,0,0,.11-.17.16.16,0,0,0-.08-.15.6.6,0,0,0-.26-.1L73,34.17a1,1,0,0,1-.53-.25.65.65,0,0,1-.17-.46A.63.63,0,0,1,72.4,33a.89.89,0,0,1,.37-.28,1.43,1.43,0,0,1,.56-.1,1.59,1.59,0,0,1,.53.08,1.53,1.53,0,0,1,.46.23l-.21.5a1.86,1.86,0,0,0-.39-.21,1.43,1.43,0,0,0-.39-.06.6.6,0,0,0-.29.06.19.19,0,0,0-.1.18.16.16,0,0,0,.06.13.41.41,0,0,0,.22.09l.42.09a1.13,1.13,0,0,1,.56.27.69.69,0,0,1,.17.48.66.66,0,0,1-.28.56,1.34,1.34,0,0,1-.79.21A1.78,1.78,0,0,1,72.18,35Z"/><path class="cls-1" d="M82.23,32.92a1.22,1.22,0,0,1,.21.79v1.52h-.75v-1.5a.6.6,0,0,0-.08-.37.32.32,0,0,0-.28-.12.41.41,0,0,0-.35.16.7.7,0,0,0-.12.44v1.39h-.75v-1.5a.61.61,0,0,0-.09-.37.29.29,0,0,0-.27-.12.41.41,0,0,0-.35.16.64.64,0,0,0-.13.44v1.39h-.75V33.44a5.2,5.2,0,0,0,0-.72h.71l0,.38a.78.78,0,0,1,.32-.33.91.91,0,0,1,.47-.11.71.71,0,0,1,.74.46,1,1,0,0,1,.35-.34,1,1,0,0,1,.48-.12A.75.75,0,0,1,82.23,32.92Z"/><path class="cls-1" d="M86.17,32.72v2.51h-.72v-.37a.84.84,0,0,1-.32.3.86.86,0,0,1-.43.11A.9.9,0,0,1,84,35a1.16,1.16,0,0,1-.24-.8V32.72h.75v1.51q0,.45.39.45a.5.5,0,0,0,.38-.15.64.64,0,0,0,.14-.42V32.72Z"/><path class="cls-1" d="M90,33.71v1.52h-.75V33.74a.58.58,0,0,0-.1-.38.35.35,0,0,0-.3-.12.51.51,0,0,0-.4.16.57.57,0,0,0-.15.42v1.41h-.74V33.44c0-.27,0-.51,0-.72h.7l.05.4a1,1,0,0,1,.35-.35,1.07,1.07,0,0,1,.49-.11C89.69,32.66,90,33,90,33.71Z"/><path class="cls-1" d="M93.82,31.59v3.64h-.74v-.37a.72.72,0,0,1-.32.3,1,1,0,0,1-.47.11,1.05,1.05,0,0,1-1-.63,1.64,1.64,0,0,1,0-1.37,1,1,0,0,1,.39-.45,1,1,0,0,1,.57-.16,1,1,0,0,1,.46.1.72.72,0,0,1,.32.3V31.59Zm-.88,2.92a1,1,0,0,0,.14-.55.87.87,0,0,0-.15-.54.5.5,0,0,0-.42-.19.51.51,0,0,0-.43.19.82.82,0,0,0-.15.53.88.88,0,0,0,.15.55.52.52,0,0,0,.43.2A.51.51,0,0,0,92.94,34.51Z"/><path class="cls-1" d="M95.65,35.11a1.13,1.13,0,0,1-.46-.46A1.35,1.35,0,0,1,95,34a1.41,1.41,0,0,1,.16-.69,1.13,1.13,0,0,1,.46-.46,1.54,1.54,0,0,1,.7-.15,1.49,1.49,0,0,1,.69.15,1.13,1.13,0,0,1,.46.46,1.41,1.41,0,0,1,.16.69,1.35,1.35,0,0,1-.16.69,1.13,1.13,0,0,1-.46.46,1.49,1.49,0,0,1-.69.16A1.54,1.54,0,0,1,95.65,35.11Zm1.12-.59a.89.89,0,0,0,.15-.56.86.86,0,0,0-.15-.55.5.5,0,0,0-.42-.19.53.53,0,0,0-.43.19.86.86,0,0,0-.15.55c0,.49.19.74.58.74A.49.49,0,0,0,96.77,34.52Z"/><path class="cls-1" d="M98.72,35l.2-.52a1.4,1.4,0,0,0,.44.22,1.69,1.69,0,0,0,.5.08.57.57,0,0,0,.29-.06.2.2,0,0,0,.11-.17.16.16,0,0,0-.08-.15.66.66,0,0,0-.26-.1l-.41-.09a1,1,0,0,1-.53-.25.61.61,0,0,1-.17-.46.68.68,0,0,1,.13-.42.92.92,0,0,1,.38-.28,1.4,1.4,0,0,1,.56-.1,1.63,1.63,0,0,1,.53.08,1.53,1.53,0,0,1,.46.23l-.21.5a1.71,1.71,0,0,0-.4-.21,1.31,1.31,0,0,0-.38-.06.57.57,0,0,0-.29.06.19.19,0,0,0-.1.18.16.16,0,0,0,.06.13.41.41,0,0,0,.22.09l.42.09a1.13,1.13,0,0,1,.56.27.69.69,0,0,1,.17.48.65.65,0,0,1-.29.56,1.29,1.29,0,0,1-.78.21A1.83,1.83,0,0,1,98.72,35Z"/><path class="cls-1" d="M102.3,34.1l-.24-2.4H103l-.23,2.39Zm-.18.33h.81v.8h-.81Z"/></symbol></defs><title>logo_apellido_preferente</title><g id="Capa_2" data-name="Capa 2"><g id="Capa_1-2" data-name="Capa 1"><use id="SN_apellido_-_positivo-3" data-name="SN + apellido - positivo" width="110.39" height="35.27" transform="scale(15.67)" xlink:href="#SN_apellido_-_positivo"/></g></g></svg>