<svg xmlns="http://www.w3.org/2000/svg" viewBox="0 0 716.63 747.06"><defs><style>.cls-1{fill:#141d2b;}.cls-2{fill:#0b1019;}</style></defs><title>simbolo_azules</title><g id="Capa_2" data-name="Capa 2"><g id="Capa_1-2" data-name="Capa 1"><path class="cls-1" d="M105.61,402.17,59.39,435.39h-.16a.16.16,0,0,1-.16.16l-.31.16h-.47a79.13,79.13,0,0,0-17.55-5.49A108,108,0,0,0,0,428.81,106.12,106.12,0,0,1,27.89,409.7a107,107,0,0,1,17.71-6.9l.16-.15A111,111,0,0,1,105.61,402.17Z"/><path class="cls-1" d="M388.44,301.42a42.7,42.7,0,0,0-15,9.87c-10,10.5-20.53,20.69-31.34,30.24-3.13,2.82-6.27,5.65-9.4,8.31-5,4.54-10.18,8.93-15.36,13.16-6.26,5.33-12.84,10.5-19.43,15.51-5.48,4.39-11.12,8.47-16.76,12.7q-10.35,7.52-21.15,14.57-11.29,7.52-23,14.57C235,421.6,233,422.86,231,424c-5.8,3.6-11.75,6.89-17.87,10.18-4.23,2.51-8.46,4.86-12.85,7.05-6.42,3.45-12.84,6.74-19.43,9.87s-13.16,6.27-19.74,9.25c-.16.16-.47.16-.62.31-5.65,2.51-11.44,5-17.24,7.37-5.49,2.35-11,4.54-16.61,6.58-3.92,1.57-7.68,3-11.6,4.38-4.54,1.73-9.09,3.29-13.63,4.86-14.26,4.86-28.67,9.25-43.09,13-5.95,1.56-11.91,3.13-17.86,4.54a48.48,48.48,0,0,0-10.34,4.08,42.57,42.57,0,0,1-4.86-7.68,43,43,0,0,1,19.9-57.35A58.74,58.74,0,0,1,52,437.74l.32-.15c2-.47,3.91-1.26,5.95-1.88.16,0,.16.15.31.15l.16-.15.31-.16a.16.16,0,0,0,.16-.16h.16a562.45,562.45,0,0,0,62.67-22.25c11.29-4.7,22.1-9.56,33.07-14.88a638.78,638.78,0,0,0,76.93-44.5h.16c4.7-3.14,9.4-6.43,13.95-9.72a592.63,592.63,0,0,0,47.32-37.92c5-4.39,9.87-8.77,14.73-13.32v-.15h.15c3-2.82,6.11-5.33,8.93-8.15.79-.78,1.73-1.57,2.67-2.35,21.15-17.71,53.9-11.44,66.28,14a34,34,0,0,1,2,5C388.44,301.26,388.44,301.26,388.44,301.42Z"/><path class="cls-1" d="M342.06,341.53c-2.82,2.82-5.64,5.33-8.62,7.84a.15.15,0,0,1-.15.16c-5.33,4.7-10.5,9.4-16,13.47,5.18-4.23,10.35-8.62,15.36-13.16C335.79,347.18,338.93,344.35,342.06,341.53Z"/><path class="cls-1" d="M58.76,435.71l-.16.15c-.15,0-.15-.15-.31-.15Z"/><path class="cls-1" d="M446.89,348.43a42.34,42.34,0,0,1-11.44,22.25c-5.64,5.95-11.44,11.75-17.24,17.39-3.13,3.14-6.42,6.11-9.71,9.09-9.72,9.4-19.9,18.33-30.24,27.11-.63.47-1.26,1.1-1.88,1.57-3.29,2.82-6.74,5.64-10.19,8.3-6.26,5.33-12.85,10.34-19.43,15.36-5.8,4.38-11.59,8.61-17.55,12.84l-11.28,8c-5.64,3.91-11.44,7.83-17.24,11.28-3.13,2.19-6.42,4.23-9.55,6.11-5.33,3.6-10.81,6.89-16.46,10.18-10.18,6.12-20.52,11.91-31.18,17.56-8.3,4.54-16.61,8.77-25.07,12.84A774.47,774.47,0,0,1,60.64,585a42.78,42.78,0,0,1-9.87,1.25,43.2,43.2,0,0,1-38.7-24.44,41.87,41.87,0,0,1-.32-36.67l.16-.16a40.67,40.67,0,0,1,18.18-19.58,48.48,48.48,0,0,1,10.34-4.08c6-1.41,11.91-3,17.86-4.54,14.42-3.76,28.83-8.15,43.09-13,4.54-1.57,9.09-3.13,13.63-4.86,3.92-1.41,7.68-2.81,11.6-4.38,5.64-2,11.12-4.23,16.61-6.58,5.8-2.35,11.59-4.86,17.24-7.37.15-.15.46-.15.62-.31,6.58-3,13.16-6.11,19.74-9.25s13-6.42,19.43-9.87c4.39-2.19,8.62-4.54,12.85-7.05,6.12-3.29,12.07-6.58,17.87-10.18,2-1.1,4.07-2.36,5.95-3.61q11.76-7.05,23-14.57,10.8-7,21.15-14.57c5.64-4.23,11.28-8.31,16.76-12.7,6.59-5,13.17-10.18,19.43-15.51,5.18-4.23,10.35-8.62,15.36-13.16,3.13-2.66,6.27-5.49,9.4-8.31,10.81-9.55,21.31-19.74,31.34-30.24a44.85,44.85,0,0,1,51.71-8.3,35.5,35.5,0,0,1,11.6,8.93,46.55,46.55,0,0,1,6.58,10A42.26,42.26,0,0,1,446.89,348.43Z"/><path class="cls-1" d="M196.49,126.55c.16.16.47.32.47,0,72.4,3.14,109.69-21.15,128.33-42.3a114.88,114.88,0,0,0-8.93-28.52,68.87,68.87,0,0,0-10,6.58l-.79-.94c-9.24-9.87-11.75-23.19-6.26-31.81C286,15,265.91,2.76,236.14.41,138.83-7.11,40.9,89.1,53,187.35a149.75,149.75,0,0,0,17.4,54.21C86,271.34,110,289.51,132.88,305.65l17.7,9.88c5.8,2.81,12.85,6.73,17.08,8.14l25.07,10.66,2.51,1.09,25.38,11.44c2.51,1.26,6.9,3.92,11.44,6.9h.16c4.7-3.14,9.4-6.43,13.95-9.72a592.63,592.63,0,0,0,47.32-37.92c5-4.39,9.87-8.93,14.73-13.47-15.36-22.72-39.65-38.55-63.31-52.18l-28.52-16.61c-5.32-3-6.89-4.7-10.49-6.74l-9.41-6-7.52-6.9c-2.35-2-5.17-3.92-6.42-6.58a71.73,71.73,0,0,0-5.64-6.27A42.91,42.91,0,0,0,173.3,185c-3.91-8.31-4.7-15.2-4.07-21.78.16-6.9,4.07-14.26,10.5-21.94a48.64,48.64,0,0,1,5.64-5.79,171.47,171.47,0,0,1-33.06-18.65l.78-1.57A167.16,167.16,0,0,0,196.49,126.55Zm3.76-73.64c9.25-4.23,21.63,3,27.9,16.29l7.2,15.36c-9.71-2-26-4.07-39.8,1.25l-.47-.94C188.82,71.55,191.17,57.29,200.25,52.91Z"/><path class="cls-2" d="M308.22,292.65c-4.86,4.54-9.72,9.08-14.73,13.47A592.63,592.63,0,0,1,246.17,344c-4.55,3.29-9.25,6.58-13.95,9.72h-.16c-4.54-3-8.93-5.64-11.44-6.9l-25.38-11.44-2.51-1.09Z"/><path class="cls-2" d="M425.11,303c-28.52,12.85-69.88,34.78-91.67,46.38a.15.15,0,0,1-.15.16c-.16.15-.47.15-.63.31,3.13-2.66,6.27-5.49,9.4-8.31,10.81-9.55,21.31-19.74,31.34-30.24a44.85,44.85,0,0,1,51.71-8.3Z"/><path class="cls-2" d="M160.46,460.62C93.7,498.23,16.77,523.61,11.91,525a40.67,40.67,0,0,1,18.18-19.58,48.48,48.48,0,0,1,10.34-4.08c6-1.41,11.91-3,17.86-4.54,14.42-3.76,28.83-8.15,43.09-13,4.54-1.57,9.09-3.13,13.63-4.86,3.92-1.41,7.68-2.81,11.6-4.38,5.64-2,11.12-4.23,16.61-6.58C149,465.64,154.81,463.13,160.46,460.62Z"/><path class="cls-1" d="M298.73,630.16c-.94.63-1.88,1.26-3,1.88"/><path class="cls-1" d="M298.73,630.16c-.94.63-1.88,1.26-3,1.88"/><path class="cls-1" d="M298.73,630.16c-.94.63-1.88,1.26-3,1.88"/><path class="cls-1" d="M181.05,681.24c-3.76,7.06-7.36,14.73-10.5,22.1a388.36,388.36,0,0,0-16.61,43.72H28q-1.41-9.4-2.35-18.81Q24.2,716,23.73,703.34a57.36,57.36,0,0,1-.31-7.37A422.26,422.26,0,0,0,66,697.54,463.18,463.18,0,0,0,181.05,681.24Z"/><path class="cls-1" d="M298.73,630.16c-.94.63-1.88,1.26-3,1.88"/><path class="cls-2" d="M531.89,642.54c.16,5.8.31,11.44.63,17.08H477.2a458.37,458.37,0,0,1,94.49-212.94,1,1,0,0,1,.94,0A454.25,454.25,0,0,0,531.89,642.54Z"/><path class="cls-1" d="M475.64,350.15a424.54,424.54,0,0,1-53.12,120.5h-.16A428.51,428.51,0,0,1,291.06,602c-4.24,2.82-8.47,5.33-12.85,7.83a414.06,414.06,0,0,1-76.47,35.57,416.75,416.75,0,0,1-50.14,14.26,432,432,0,0,1-86,9.87,412.91,412.91,0,0,1-42-1.56,34.86,34.86,0,0,1-4.07-.32,50.55,50.55,0,0,1,2.19-8c.79-3.13,1.72-6.27,2.66-9.4,1.73-5.48,3.45-10.81,5.49-16,2.35-6.74,5-13.48,7.68-20.06,0,0,115.48-27.11,206.05-98.71a762,762,0,0,0,134.75-91.2,740.71,740.71,0,0,0,57.2-53.59A42.25,42.25,0,0,0,447,348.43C456.68,348.59,466.24,349.21,475.64,350.15Z"/><path class="cls-2" d="M378.33,424.27C213,597,29.85,634.24,29.85,634.24c2.35-6.74,5-13.48,7.68-20.06,0,0,115.48-27.11,206.05-98.71A762,762,0,0,0,378.33,424.27Z"/><path class="cls-1" d="M623.87,217.28a114.85,114.85,0,0,0-111.25,94.33c-2.35,14.26-5.33,28.36-8.77,42.15a456.21,456.21,0,0,1-42,105.29,453.73,453.73,0,0,1-84.46,110.32,458.61,458.61,0,0,1-76.15,59.38,19.15,19.15,0,0,1-2.51,1.41c-.94.63-1.87,1.26-3,1.88,6.73,8.93,13,18.18,19,27.58a423.13,423.13,0,0,1,24,43.72H472.35a404.79,404.79,0,0,1,4.86-43.72,458.36,458.36,0,0,1,94.48-212.94c.79-.94,1.41-1.73,2.2-2.67-.16-.15-.16-.31.15-.31,1.88-2.19,3.61-4.23,5.49-6.43,6-7.2,12.38-14.26,19-21,.15-.16.31-.16.31-.32l.94-.94c1.88-2,3.92-4.07,6-6.11a2.61,2.61,0,0,1,.94-.94c1.25-1.25,2.35-2.35,3.44-3.6,4.23-4.39,8.46-8.93,12.38-13.48a721.42,721.42,0,0,0,59.86-74.74c10.19-14.57,19.74-29.3,28.67-44.34l.16-.16c1.88-3.13,3.76-6.11,5.48-9.25A113.89,113.89,0,0,0,623.87,217.28Zm.47,76.62-.15.16a20.76,20.76,0,0,1-6.27,4.07,20.39,20.39,0,0,1-26.8-11l-15.35,6.27-2.2-5.48L635,262.56l2.19,5.49L629,271.49A20,20,0,0,1,624.34,293.9Z"/><line class="cls-1" x1="472.34" y1="703.34" x2="338.69" y2="703.34"/></g></g></svg>