<svg xmlns="http://www.w3.org/2000/svg" xmlns:xlink="http://www.w3.org/1999/xlink" viewBox="0 0 716.63 747.06"><defs><style>.cls-1{fill:#d93636;}.cls-2{fill:#861b1b;}.cls-3{fill:none;}</style><symbol id="Xuanwu_-_rojos" data-name="Xuanwu - rojos" viewBox="0 0 45.73 47.68"><path class="cls-1" d="M6.74,25.67,3.79,27.79h0a0,0,0,0,1,0,0h0a5,5,0,0,0-1.12-.35A6.88,6.88,0,0,0,0,27.37a6.77,6.77,0,0,1,1.78-1.22,6.78,6.78,0,0,1,1.13-.44h0A7.08,7.08,0,0,1,6.74,25.67Z"/><path class="cls-1" d="M24.79,19.24a2.71,2.71,0,0,0-1,.63c-.64.67-1.31,1.32-2,1.93l-.6.53c-.32.29-.65.57-1,.84s-.82.67-1.24,1-.71.54-1.07.81-.89.63-1.35.93-1,.63-1.47.93l-.38.23c-.37.23-.75.44-1.14.65s-.54.31-.82.45-.82.43-1.24.63l-1.26.59,0,0-1.1.47c-.35.15-.7.29-1.06.42l-.74.28-.87.31c-.91.31-1.83.59-2.75.83L2.58,32a3.12,3.12,0,0,0-.66.26,2.71,2.71,0,0,1-.31-.49,2.75,2.75,0,0,1,1.27-3.66,3.68,3.68,0,0,1,.44-.17h0c.13,0,.25-.08.38-.12h0a0,0,0,0,0,0,0h0a36,36,0,0,0,4-1.42c.72-.3,1.41-.61,2.11-.95a40.79,40.79,0,0,0,4.91-2.84h0l.89-.62a37.63,37.63,0,0,0,3-2.42l.94-.85h0c.19-.18.39-.34.57-.52l.17-.15a2.75,2.75,0,0,1,4.23.89,2.15,2.15,0,0,1,.13.32Z"/><path class="cls-1" d="M21.83,21.8c-.18.18-.36.34-.55.5h0c-.34.3-.67.6-1,.86.33-.27.66-.55,1-.84Z"/><path class="cls-1" d="M3.75,27.81h0Z"/><path class="cls-1" d="M28.52,22.24a2.7,2.7,0,0,1-.73,1.42c-.36.38-.73.75-1.1,1.11-.2.2-.41.39-.62.58-.62.6-1.27,1.17-1.93,1.73l-.12.1-.65.53c-.4.34-.82.66-1.24,1L21,29.51l-.72.51c-.36.25-.73.5-1.1.72-.2.14-.41.27-.61.39s-.69.44-1,.65c-.65.39-1.31.76-2,1.12-.53.29-1.06.56-1.6.82A49.42,49.42,0,0,1,3.87,37.34a2.72,2.72,0,0,1-.63.08A2.76,2.76,0,0,1,.77,35.86a2.67,2.67,0,0,1,0-2.34h0a2.6,2.6,0,0,1,1.16-1.25A3.12,3.12,0,0,1,2.58,32l1.14-.29c.92-.24,1.84-.52,2.75-.83l.87-.31.74-.28c.36-.13.71-.27,1.06-.42l1.1-.47,0,0,1.26-.59c.42-.2.83-.41,1.24-.63s.55-.29.82-.45.77-.42,1.14-.65l.38-.23q.75-.45,1.47-.93T17.94,25c.36-.27.72-.53,1.07-.81s.84-.65,1.24-1,.66-.55,1-.84l.6-.53c.69-.61,1.36-1.26,2-1.93a2.86,2.86,0,0,1,3.3-.53,2.26,2.26,0,0,1,.74.57,3,3,0,0,1,.42.64A2.69,2.69,0,0,1,28.52,22.24Z"/><path class="cls-1" d="M12.54,8.08s0,0,0,0c4.62.2,7-1.35,8.19-2.7a7.38,7.38,0,0,0-.57-1.82,4.41,4.41,0,0,0-.64.42l-.05-.06a1.73,1.73,0,0,1-.4-2,5.88,5.88,0,0,0-4-1.86C8.86-.45,2.61,5.69,3.38,12a9.56,9.56,0,0,0,1.11,3.46,11.78,11.78,0,0,0,4,4.09l1.13.63c.37.18.82.43,1.09.52l1.6.68.16.07,1.62.73c.16.08.44.25.73.44h0l.89-.62a37.63,37.63,0,0,0,3-2.42c.32-.28.63-.57.94-.86a11.79,11.79,0,0,0-4-3.33l-1.82-1.06c-.34-.19-.44-.3-.67-.43l-.6-.38L12.06,13a1.49,1.49,0,0,1-.41-.42,4.48,4.48,0,0,0-.36-.4,2.71,2.71,0,0,0-.23-.41,2.55,2.55,0,0,1-.26-1.39A2.41,2.41,0,0,1,11.47,9a3.12,3.12,0,0,1,.36-.37A10.91,10.91,0,0,1,9.72,7.46l0-.1A10.67,10.67,0,0,0,12.54,8.08Zm.24-4.7c.59-.27,1.38.19,1.78,1l.46,1a4.72,4.72,0,0,0-2.54.08l0-.06C12.05,4.57,12.2,3.66,12.78,3.38Z"/><path class="cls-2" d="M19.67,18.68c-.31.29-.62.58-.94.86a37.63,37.63,0,0,1-3,2.42l-.89.62h0c-.29-.19-.57-.36-.73-.44l-1.62-.73-.16-.07Z"/><path class="cls-2" d="M27.13,19.34c-1.82.82-4.46,2.22-5.85,3h0l0,0,.6-.53c.69-.61,1.36-1.26,2-1.93a2.86,2.86,0,0,1,3.3-.53Z"/><path class="cls-2" d="M10.24,29.4A58,58,0,0,1,.76,33.51a2.6,2.6,0,0,1,1.16-1.25A3.12,3.12,0,0,1,2.58,32l1.14-.29c.92-.24,1.84-.52,2.75-.83l.87-.31.74-.28c.36-.13.71-.27,1.06-.42Z"/><path class="cls-3" d="M19.06,40.22l-.19.12"/><path class="cls-3" d="M19.06,40.22l-.19.12"/><path class="cls-3" d="M19.06,40.22l-.19.12"/><path class="cls-1" d="M11.55,43.48c-.24.45-.47.94-.67,1.41a24.65,24.65,0,0,0-1.06,2.79h-8q-.09-.6-.15-1.2-.09-.78-.12-1.59a3.62,3.62,0,0,1,0-.47,27.14,27.14,0,0,0,2.72.1A29.56,29.56,0,0,0,11.55,43.48Z"/><path class="cls-3" d="M19.06,40.22l-.19.12"/><path class="cls-2" d="M33.94,41c0,.37,0,.73,0,1.09H30.45a29.25,29.25,0,0,1,6-13.59.06.06,0,0,1,.06,0A29,29,0,0,0,33.94,41Z"/><path class="cls-1" d="M30.35,22.35A27.1,27.1,0,0,1,27,30h0a27.24,27.24,0,0,1-8.38,8.38c-.27.18-.54.34-.82.5a26.45,26.45,0,0,1-4.88,2.27,27,27,0,0,1-3.19.91,27.73,27.73,0,0,1-5.49.63,26.43,26.43,0,0,1-2.69-.1l-.26,0a3.23,3.23,0,0,1,.14-.51c.06-.2.11-.4.17-.6s.22-.69.35-1,.32-.86.49-1.28a38.07,38.07,0,0,0,13.15-6.3,48.62,48.62,0,0,0,8.6-5.82,45.53,45.53,0,0,0,3.65-3.42,2.57,2.57,0,0,0,.73-1.42C29.14,22.25,29.75,22.29,30.35,22.35Z"/><path class="cls-2" d="M24.14,27.08C13.59,38.1,1.9,40.48,1.9,40.48c.15-.43.32-.86.49-1.28a38.07,38.07,0,0,0,13.15-6.3A48.62,48.62,0,0,0,24.14,27.08Z"/><path class="cls-1" d="M39.81,13.87a7.33,7.33,0,0,0-7.1,6c-.15.91-.34,1.81-.56,2.69a29.11,29.11,0,0,1-2.68,6.72,29,29,0,0,1-5.39,7,29.24,29.24,0,0,1-4.86,3.79.83.83,0,0,1-.16.09,1.57,1.57,0,0,1-.19.12c.43.57.83,1.16,1.21,1.76a27,27,0,0,1,1.53,2.79h8.53c.06-.94.16-1.87.31-2.79a29.25,29.25,0,0,1,6-13.59l.14-.17s0,0,0,0l.35-.41c.38-.46.79-.91,1.22-1.34,0,0,0,0,0,0l.06-.06.38-.39.06-.06.23-.23c.26-.28.53-.57.78-.86a46.13,46.13,0,0,0,3.82-4.77c.66-.93,1.26-1.87,1.83-2.83h0c.12-.2.24-.39.35-.59A7.27,7.27,0,0,0,39.81,13.87Zm0,4.89h0a1.4,1.4,0,0,1-.39.26,1.31,1.31,0,0,1-1.72-.7l-1,.4-.14-.35,3.92-1.62.14.35-.52.22A1.28,1.28,0,0,1,39.84,18.76Z"/><line class="cls-3" x1="30.14" y1="44.89" x2="21.61" y2="44.89"/></symbol></defs><title>simbolo_rojos</title><g id="Capa_2" data-name="Capa 2"><g id="Capa_1-2" data-name="Capa 1"><use width="45.73" height="47.68" transform="scale(15.67)" xlink:href="#Xuanwu_-_rojos"/></g></g></svg>