<svg xmlns="http://www.w3.org/2000/svg" xmlns:xlink="http://www.w3.org/1999/xlink" viewBox="0 0 476.26 299.71"><defs><style>.cls-1{fill:#141d2b;}.cls-2{fill:#d93636;}</style><symbol id="SN_-_iniciales_-_positivo" data-name="SN - iniciales - positivo" viewBox="0 0 30.39 19.13"><g id="logotipo_reducido"><path class="cls-1" d="M6.41,10.92a9,9,0,0,1-2.8-1.16A5.08,5.08,0,0,1,1.24,5.59,5,5,0,0,1,2.59,1.82,6.43,6.43,0,0,1,6.89,0a9.19,9.19,0,0,1,5.54,1.85l.6.39L11.11,5.38,10.45,5A5.66,5.66,0,0,0,6.89,3.69a2.85,2.85,0,0,0-1.64.69,1.32,1.32,0,0,0-.32,1c0,1,.69,1.48,2.38,1.9l.53.16A9.86,9.86,0,0,1,11.93,10a5.32,5.32,0,0,1,1.45,3.61,5.76,5.76,0,0,1-5.73,5.57,11.12,11.12,0,0,1-3.24-.45A10.2,10.2,0,0,1,0,15.88l2.69-2.53a6.39,6.39,0,0,0,5,2.08,2,2,0,0,0,2-1.87c0-1-1.13-1.93-3.06-2.58l-.08,0Z"/><polygon class="cls-2" points="29.42 18.76 19.02 7.97 19.02 18.76 15.33 18.76 15.33 0.26 16.49 0.26 26.7 10.61 26.7 0.26 30.39 0.26 30.39 18.76 29.42 18.76"/></g></symbol></defs><title>SN_preferente</title><g id="Capa_2" data-name="Capa 2"><g id="Capa_1-2" data-name="Capa 1"><use width="30.39" height="19.13" transform="scale(15.67)" xlink:href="#SN_-_iniciales_-_positivo"/></g></g></svg>